<svg width="111" height="86" viewBox="0 0 111 86" fill="none" xmlns="http://www.w3.org/2000/svg">
<path fill-rule="evenodd" clip-rule="evenodd" d="M89 45.5L110 66L86.5 52.5L78.6429 50L75.5 54.2598L79.0143 62.7236L81.6143 57L92.5 63.5L77 80L70.4714 62.7236L63.0429 65.4167L67.1487 69.5L55.5 85L45 69.5L74.9286 41.5L58 48V50L24.5 71.1228L18.5 45L0.5 30L21.5 39L38 57L47 48L2 10L40 28.5L52.5 43.5L43.5 24.5L50 12.5L58.5 41.5L65 39L54.5 11.5L67.1487 16.5154L74.9286 35L67.1487 2L78.6429 13.4792L81.6143 31L91.3482 17.7112L106 8L80.1286 45.5H89ZM54.5 71.5722L57.1 68.5L60.4429 71.5722L57.544 77.8417L54.5 71.5722ZM79.0143 71.1228L77.5 67.5L81.6143 64.2625L87.1857 65.4167L79.0143 71.1228Z" stroke="#B0B0B0"/>
</svg>
